<svg xmlns="http://www.w3.org/2000/svg" xmlns:xlink="http://www.w3.org/1999/xlink" width="1000" zoomAndPan="magnify" viewBox="0 0 750 149.999998" height="200" preserveAspectRatio="xMidYMid meet" version="1.0"><defs><g/><clipPath id="e3c3b1e56b"><path d="M 0 0.238281 L 147.800781 0.238281 L 147.800781 150 L 0 150 Z M 0 0.238281 " clip-rule="nonzero"/></clipPath><clipPath id="41d14ce95c"><path d="M 24.65625 0.28125 C 10.734375 0.28125 -0.0742188 12.800781 -0.0742188 27.59375 L -0.0742188 123.144531 C -0.0742188 139.632812 13.28125 153.007812 29.730469 153.007812 L 120 153.007812 C 136.445312 153.007812 150.054688 139.546875 147.027344 123.308594 C 145.128906 113.113281 142.269531 103.164062 138.367188 93.613281 C 130.8125 74.742188 119.75 57.625 105.847656 43.207031 C 91.925781 28.785156 75.460938 17.417969 57.320312 9.601562 C 48.347656 5.777344 39.039062 2.832031 29.582031 0.84375 C 27.828125 0.449219 26.242188 0.28125 24.65625 0.28125 Z M 24.65625 0.28125 " clip-rule="nonzero"/></clipPath><clipPath id="07e0839866"><path d="M 24.65625 0.28125 C 10.734375 0.28125 -0.0742188 12.800781 -0.0742188 27.59375 L -0.0742188 123.144531 C -0.0742188 139.632812 13.28125 153.007812 29.730469 153.007812 L 120 153.007812 C 136.445312 153.007812 150.054688 139.546875 147.027344 123.308594 C 145.128906 113.113281 142.269531 103.164062 138.367188 93.613281 C 130.8125 74.742188 119.75 57.625 105.847656 43.207031 C 91.925781 28.785156 75.460938 17.417969 57.320312 9.601562 C 48.347656 5.777344 39.039062 2.832031 29.582031 0.84375 C 27.828125 0.449219 26.242188 0.28125 24.65625 0.28125 Z M 24.65625 0.28125 " clip-rule="nonzero"/></clipPath><clipPath id="7a18222177"><path d="M 54 0.238281 L 201.984375 0.238281 L 201.984375 150 L 54 150 Z M 54 0.238281 " clip-rule="nonzero"/></clipPath><clipPath id="cbe70c4aed"><path d="M 177.019531 0.28125 C 175.414062 0.28125 173.746094 0.449219 172.160156 0.761719 C 162.703125 2.746094 153.394531 5.695312 144.398438 9.519531 C 126.199219 17.335938 109.648438 28.785156 95.746094 43.207031 C 81.824219 57.625 70.761719 74.742188 63.207031 93.613281 C 59.410156 103.246094 56.464844 113.195312 54.546875 123.308594 C 51.519531 139.546875 65.128906 153.007812 81.59375 153.007812 L 171.929688 153.007812 C 188.375 153.007812 201.734375 139.632812 201.734375 123.144531 L 201.734375 27.59375 C 201.734375 12.800781 190.921875 0.28125 177.019531 0.28125 Z M 177.019531 0.28125 " clip-rule="nonzero"/></clipPath><clipPath id="2755b6fa85"><path d="M 177.019531 0.28125 C 175.414062 0.28125 173.746094 0.449219 172.160156 0.761719 C 162.703125 2.746094 153.394531 5.695312 144.398438 9.519531 C 126.199219 17.335938 109.648438 28.785156 95.746094 43.207031 C 81.824219 57.625 70.761719 74.742188 63.207031 93.613281 C 59.410156 103.246094 56.464844 113.195312 54.546875 123.308594 C 51.519531 139.546875 65.128906 153.007812 81.59375 153.007812 L 171.929688 153.007812 C 188.375 153.007812 201.734375 139.632812 201.734375 123.144531 L 201.734375 27.59375 C 201.734375 12.800781 190.921875 0.28125 177.019531 0.28125 Z M 177.019531 0.28125 " clip-rule="nonzero"/></clipPath></defs><g clip-path="url(#e3c3b1e56b)"><g clip-path="url(#41d14ce95c)"><g clip-path="url(#07e0839866)"><rect x="-75" width="900" fill="#615dff" y="-15" height="179.999997" fill-opacity="1"/></g></g></g><g clip-path="url(#7a18222177)"><g clip-path="url(#cbe70c4aed)"><g clip-path="url(#2755b6fa85)"><rect x="-75" width="900" fill="#3dd9eb" y="-15" height="179.999997" fill-opacity="1"/></g></g></g><g fill="#000000" fill-opacity="1"><g transform="translate(204.018862, 104.958676)"><g><path d="M 28.53125 0.78125 C 23.976562 0.78125 19.960938 -0.253906 16.484375 -2.328125 C 13.015625 -4.410156 10.300781 -7.539062 8.34375 -11.71875 C 6.394531 -15.90625 5.421875 -21.039062 5.421875 -27.125 C 5.421875 -33.207031 6.460938 -38.335938 8.546875 -42.515625 C 10.640625 -46.703125 13.539062 -49.832031 17.25 -51.90625 C 20.96875 -53.988281 25.25 -55.03125 30.09375 -55.03125 C 35.289062 -55.03125 39.554688 -54.097656 42.890625 -52.234375 C 46.234375 -50.367188 48.597656 -47.578125 49.984375 -43.859375 L 45.828125 -41.421875 L 44.90625 -41.421875 C 43.488281 -44.234375 41.582031 -46.25 39.1875 -47.46875 C 36.789062 -48.695312 33.757812 -49.3125 30.09375 -49.3125 C 18.195312 -49.3125 12.25 -41.914062 12.25 -27.125 C 12.25 -19.4375 13.742188 -13.820312 16.734375 -10.28125 C 19.734375 -6.738281 23.925781 -4.96875 29.3125 -4.96875 C 34.257812 -4.96875 37.960938 -6.09375 40.421875 -8.34375 C 42.890625 -10.601562 44.125 -14.15625 44.125 -19 L 44.125 -23.78125 L 28.6875 -23.78125 L 28.6875 -28.90625 L 50.328125 -28.90625 L 50.328125 0 L 44.421875 0 L 44.421875 -7.28125 L 43.640625 -7.453125 C 42.203125 -4.660156 40.203125 -2.585938 37.640625 -1.234375 C 35.085938 0.109375 32.050781 0.78125 28.53125 0.78125 Z M 28.53125 0.78125 "/></g></g></g><g fill="#000000" fill-opacity="1"><g transform="translate(259.206217, 104.958676)"><g><path d="M 39 -19.078125 L 10.875 -19.078125 C 11.050781 -14.097656 12.242188 -10.445312 14.453125 -8.125 C 16.671875 -5.800781 19.707031 -4.640625 23.5625 -4.640625 C 26.476562 -4.640625 28.828125 -5.15625 30.609375 -6.1875 C 32.390625 -7.226562 33.789062 -8.863281 34.8125 -11.09375 L 35.59375 -11.09375 L 39.515625 -8.765625 C 38.328125 -5.796875 36.425781 -3.460938 33.8125 -1.765625 C 31.207031 -0.0664062 27.789062 0.78125 23.5625 0.78125 C 19.601562 0.78125 16.203125 0.00390625 13.359375 -1.546875 C 10.515625 -3.109375 8.320312 -5.472656 6.78125 -8.640625 C 5.25 -11.804688 4.484375 -15.742188 4.484375 -20.453125 C 4.484375 -25.097656 5.296875 -29.015625 6.921875 -32.203125 C 8.546875 -35.398438 10.757812 -37.785156 13.5625 -39.359375 C 16.375 -40.929688 19.582031 -41.71875 23.1875 -41.71875 C 28.4375 -41.71875 32.53125 -40.238281 35.46875 -37.28125 C 38.414062 -34.320312 39.90625 -29.9375 39.9375 -24.125 C 39.9375 -21.84375 39.882812 -20.304688 39.78125 -19.515625 Z M 33.953125 -24.125 C 33.859375 -28.476562 32.894531 -31.644531 31.0625 -33.625 C 29.226562 -35.601562 26.601562 -36.59375 23.1875 -36.59375 C 19.601562 -36.59375 16.789062 -35.59375 14.75 -33.59375 C 12.707031 -31.601562 11.460938 -28.445312 11.015625 -24.125 Z M 33.953125 -24.125 "/></g></g></g><g fill="#000000" fill-opacity="1"><g transform="translate(301.628605, 104.958676)"><g><path d="M 18.671875 0.78125 C 16.097656 0.78125 13.710938 0.441406 11.515625 -0.234375 C 9.328125 -0.921875 7.476562 -1.859375 5.96875 -3.046875 C 4.46875 -4.234375 3.40625 -5.566406 2.78125 -7.046875 L 6.34375 -10.765625 L 7.125 -10.765625 C 8.457031 -8.734375 10.0625 -7.203125 11.9375 -6.171875 C 13.820312 -5.148438 16.066406 -4.640625 18.671875 -4.640625 C 21.679688 -4.640625 23.972656 -5.226562 25.546875 -6.40625 C 27.117188 -7.582031 27.90625 -9.21875 27.90625 -11.3125 C 27.90625 -12.925781 27.425781 -14.257812 26.46875 -15.3125 C 25.519531 -16.363281 23.984375 -17.148438 21.859375 -17.671875 L 14.953125 -19.375 C 11.265625 -20.257812 8.570312 -21.664062 6.875 -23.59375 C 5.1875 -25.53125 4.34375 -27.921875 4.34375 -30.765625 C 4.34375 -32.992188 4.910156 -34.929688 6.046875 -36.578125 C 7.179688 -38.222656 8.816406 -39.488281 10.953125 -40.375 C 13.097656 -41.269531 15.644531 -41.71875 18.59375 -41.71875 C 22.351562 -41.71875 25.316406 -41.191406 27.484375 -40.140625 C 29.648438 -39.085938 31.335938 -37.617188 32.546875 -35.734375 L 29.125 -32.390625 L 28.390625 -32.390625 C 27.078125 -33.898438 25.644531 -34.988281 24.09375 -35.65625 C 22.550781 -36.332031 20.71875 -36.671875 18.59375 -36.671875 C 15.894531 -36.671875 13.828125 -36.1875 12.390625 -35.21875 C 10.960938 -34.25 10.25 -32.851562 10.25 -31.03125 C 10.25 -29.363281 10.753906 -28.023438 11.765625 -27.015625 C 12.773438 -26.003906 14.546875 -25.1875 17.078125 -24.5625 L 23.859375 -22.9375 C 27.421875 -22.09375 29.992188 -20.691406 31.578125 -18.734375 C 33.160156 -16.785156 33.953125 -14.335938 33.953125 -11.390625 C 33.953125 -8.992188 33.382812 -6.878906 32.25 -5.046875 C 31.113281 -3.210938 29.394531 -1.78125 27.09375 -0.75 C 24.789062 0.269531 21.984375 0.78125 18.671875 0.78125 Z M 18.671875 0.78125 "/></g></g></g><g fill="#000000" fill-opacity="1"><g transform="translate(338.262228, 104.958676)"><g><path d="M 27.6875 -6.5 L 29.609375 -2.15625 C 28.648438 -1.1875 27.382812 -0.457031 25.8125 0.03125 C 24.238281 0.53125 22.535156 0.78125 20.703125 0.78125 C 12.890625 0.78125 8.984375 -3.175781 8.984375 -11.09375 L 8.984375 -36 L 1.859375 -36 L 1.859375 -40.96875 L 8.984375 -40.96875 L 8.984375 -49.609375 L 15.03125 -50.625 L 15.03125 -40.96875 L 28.203125 -40.96875 L 28.203125 -36 L 15.03125 -36 L 15.03125 -11.6875 C 15.03125 -6.988281 17.070312 -4.640625 21.15625 -4.640625 C 23.382812 -4.640625 25.300781 -5.257812 26.90625 -6.5 Z M 27.6875 -6.5 "/></g></g></g><g fill="#000000" fill-opacity="1"><g transform="translate(368.216507, 104.958676)"><g><path d="M 10.171875 -48.84375 C 8.878906 -48.84375 7.832031 -49.242188 7.03125 -50.046875 C 6.226562 -50.847656 5.828125 -51.867188 5.828125 -53.109375 C 5.828125 -54.335938 6.226562 -55.351562 7.03125 -56.15625 C 7.832031 -56.96875 8.878906 -57.375 10.171875 -57.375 C 11.453125 -57.375 12.492188 -56.96875 13.296875 -56.15625 C 14.109375 -55.351562 14.515625 -54.335938 14.515625 -53.109375 C 14.515625 -51.867188 14.109375 -50.847656 13.296875 -50.046875 C 12.492188 -49.242188 11.453125 -48.84375 10.171875 -48.84375 Z M 7.125 0 L 7.125 -40.9375 L 13.171875 -40.9375 L 13.171875 0 Z M 7.125 0 "/></g></g></g><g fill="#000000" fill-opacity="1"><g transform="translate(387.298304, 104.958676)"><g><path d="M 23.484375 0.78125 C 19.628906 0.78125 16.269531 -0.0351562 13.40625 -1.671875 C 10.550781 -3.304688 8.347656 -5.710938 6.796875 -8.890625 C 5.253906 -12.066406 4.484375 -15.921875 4.484375 -20.453125 C 4.484375 -24.972656 5.253906 -28.828125 6.796875 -32.015625 C 8.347656 -35.210938 10.550781 -37.628906 13.40625 -39.265625 C 16.269531 -40.898438 19.628906 -41.71875 23.484375 -41.71875 C 27.347656 -41.71875 30.707031 -40.898438 33.5625 -39.265625 C 36.425781 -37.628906 38.628906 -35.210938 40.171875 -32.015625 C 41.710938 -28.828125 42.484375 -24.972656 42.484375 -20.453125 C 42.484375 -15.921875 41.710938 -12.066406 40.171875 -8.890625 C 38.628906 -5.710938 36.425781 -3.304688 33.5625 -1.671875 C 30.707031 -0.0351562 27.347656 0.78125 23.484375 0.78125 Z M 23.484375 -4.640625 C 27.566406 -4.640625 30.691406 -5.925781 32.859375 -8.5 C 35.023438 -11.070312 36.109375 -15.054688 36.109375 -20.453125 C 36.109375 -25.867188 35.023438 -29.863281 32.859375 -32.4375 C 30.691406 -35.007812 27.566406 -36.296875 23.484375 -36.296875 C 19.410156 -36.296875 16.285156 -35 14.109375 -32.40625 C 11.929688 -29.820312 10.84375 -25.835938 10.84375 -20.453125 C 10.84375 -15.054688 11.929688 -11.070312 14.109375 -8.5 C 16.285156 -5.925781 19.410156 -4.640625 23.484375 -4.640625 Z M 23.484375 -4.640625 "/></g></g></g><g fill="#000000" fill-opacity="1"><g transform="translate(433.060353, 104.958676)"><g><path d="M 7.125 0 L 7.125 -40.9375 L 12.875 -40.9375 L 12.875 -34.515625 L 13.65625 -34.328125 C 15.019531 -36.722656 16.757812 -38.550781 18.875 -39.8125 C 20.988281 -41.082031 23.566406 -41.71875 26.609375 -41.71875 C 31.535156 -41.71875 35.101562 -40.457031 37.3125 -37.9375 C 39.53125 -35.425781 40.640625 -31.5625 40.640625 -26.34375 L 40.640625 0 L 34.59375 0 L 34.59375 -26.203125 C 34.59375 -28.671875 34.273438 -30.65625 33.640625 -32.15625 C 33.003906 -33.65625 32.023438 -34.742188 30.703125 -35.421875 C 29.378906 -36.097656 27.644531 -36.4375 25.5 -36.4375 C 21.8125 -36.4375 18.832031 -35.21875 16.5625 -32.78125 C 14.300781 -30.34375 13.171875 -26.414062 13.171875 -21 L 13.171875 0 Z M 7.125 0 "/></g></g></g><g fill="#000000" fill-opacity="1"><g transform="translate(478.970842, 104.958676)"><g><path d="M 16.890625 0.78125 C 12.859375 0.78125 9.707031 -0.269531 7.4375 -2.375 C 5.175781 -4.476562 4.046875 -7.484375 4.046875 -11.390625 C 4.046875 -13.816406 4.546875 -15.863281 5.546875 -17.53125 C 6.546875 -19.207031 8.097656 -20.566406 10.203125 -21.609375 C 12.304688 -22.660156 15.050781 -23.472656 18.4375 -24.046875 C 21.40625 -24.546875 23.660156 -25.101562 25.203125 -25.71875 C 26.753906 -26.332031 27.796875 -27.023438 28.328125 -27.796875 C 28.859375 -28.566406 29.125 -29.53125 29.125 -30.6875 C 29.125 -32.539062 28.488281 -33.960938 27.21875 -34.953125 C 25.945312 -35.941406 23.898438 -36.4375 21.078125 -36.4375 C 18.429688 -36.4375 16.160156 -35.921875 14.265625 -34.890625 C 12.378906 -33.867188 10.644531 -32.34375 9.0625 -30.3125 L 8.3125 -30.3125 L 5.34375 -34.515625 C 7.070312 -36.710938 9.269531 -38.460938 11.9375 -39.765625 C 14.613281 -41.066406 17.660156 -41.71875 21.078125 -41.71875 C 25.898438 -41.71875 29.457031 -40.65625 31.75 -38.53125 C 34.039062 -36.414062 35.1875 -33.492188 35.1875 -29.765625 L 35.1875 -8.046875 C 35.1875 -5.773438 36.148438 -4.640625 38.078125 -4.640625 C 38.722656 -4.640625 39.34375 -4.75 39.9375 -4.96875 L 40.453125 -4.828125 L 41.15625 -0.625 C 40.707031 -0.332031 40.117188 -0.109375 39.390625 0.046875 C 38.660156 0.210938 37.910156 0.296875 37.140625 0.296875 C 34.890625 0.296875 33.1875 -0.195312 32.03125 -1.1875 C 30.882812 -2.175781 30.15625 -3.632812 29.84375 -5.5625 L 29.0625 -5.640625 C 27.894531 -3.484375 26.320312 -1.875 24.34375 -0.8125 C 22.363281 0.25 19.878906 0.78125 16.890625 0.78125 Z M 18.21875 -4.046875 C 20.5 -4.046875 22.472656 -4.570312 24.140625 -5.625 C 25.804688 -6.675781 27.082031 -8.15625 27.96875 -10.0625 C 28.863281 -11.96875 29.3125 -14.164062 29.3125 -16.65625 L 29.3125 -21.859375 L 28.609375 -22 C 27.691406 -21.363281 26.578125 -20.828125 25.265625 -20.390625 C 23.960938 -19.960938 22.132812 -19.570312 19.78125 -19.21875 C 17.40625 -18.894531 15.519531 -18.398438 14.125 -17.734375 C 12.726562 -17.066406 11.734375 -16.21875 11.140625 -15.1875 C 10.546875 -14.164062 10.25 -12.898438 10.25 -11.390625 C 10.25 -8.992188 10.953125 -7.171875 12.359375 -5.921875 C 13.765625 -4.671875 15.71875 -4.046875 18.21875 -4.046875 Z M 18.21875 -4.046875 "/></g></g></g><g fill="#000000" fill-opacity="1"><g transform="translate(520.094497, 104.958676)"><g><path d="M 10.171875 -48.84375 C 8.878906 -48.84375 7.832031 -49.242188 7.03125 -50.046875 C 6.226562 -50.847656 5.828125 -51.867188 5.828125 -53.109375 C 5.828125 -54.335938 6.226562 -55.351562 7.03125 -56.15625 C 7.832031 -56.96875 8.878906 -57.375 10.171875 -57.375 C 11.453125 -57.375 12.492188 -56.96875 13.296875 -56.15625 C 14.109375 -55.351562 14.515625 -54.335938 14.515625 -53.109375 C 14.515625 -51.867188 14.109375 -50.847656 13.296875 -50.046875 C 12.492188 -49.242188 11.453125 -48.84375 10.171875 -48.84375 Z M 7.125 0 L 7.125 -40.9375 L 13.171875 -40.9375 L 13.171875 0 Z M 7.125 0 "/></g></g></g><g fill="#000000" fill-opacity="1"><g transform="translate(539.176283, 104.958676)"><g><path d="M 7.125 0 L 7.125 -40.9375 L 12.875 -40.9375 L 12.875 -34.515625 L 13.65625 -34.328125 C 15.019531 -36.722656 16.757812 -38.550781 18.875 -39.8125 C 20.988281 -41.082031 23.566406 -41.71875 26.609375 -41.71875 C 31.535156 -41.71875 35.101562 -40.457031 37.3125 -37.9375 C 39.53125 -35.425781 40.640625 -31.5625 40.640625 -26.34375 L 40.640625 0 L 34.59375 0 L 34.59375 -26.203125 C 34.59375 -28.671875 34.273438 -30.65625 33.640625 -32.15625 C 33.003906 -33.65625 32.023438 -34.742188 30.703125 -35.421875 C 29.378906 -36.097656 27.644531 -36.4375 25.5 -36.4375 C 21.8125 -36.4375 18.832031 -35.21875 16.5625 -32.78125 C 14.300781 -30.34375 13.171875 -26.414062 13.171875 -21 L 13.171875 0 Z M 7.125 0 "/></g></g></g><g fill="#000000" fill-opacity="1"><g transform="translate(585.086772, 104.958676)"><g><path d="M 16.890625 0.78125 C 12.859375 0.78125 9.707031 -0.269531 7.4375 -2.375 C 5.175781 -4.476562 4.046875 -7.484375 4.046875 -11.390625 C 4.046875 -13.816406 4.546875 -15.863281 5.546875 -17.53125 C 6.546875 -19.207031 8.097656 -20.566406 10.203125 -21.609375 C 12.304688 -22.660156 15.050781 -23.472656 18.4375 -24.046875 C 21.40625 -24.546875 23.660156 -25.101562 25.203125 -25.71875 C 26.753906 -26.332031 27.796875 -27.023438 28.328125 -27.796875 C 28.859375 -28.566406 29.125 -29.53125 29.125 -30.6875 C 29.125 -32.539062 28.488281 -33.960938 27.21875 -34.953125 C 25.945312 -35.941406 23.898438 -36.4375 21.078125 -36.4375 C 18.429688 -36.4375 16.160156 -35.921875 14.265625 -34.890625 C 12.378906 -33.867188 10.644531 -32.34375 9.0625 -30.3125 L 8.3125 -30.3125 L 5.34375 -34.515625 C 7.070312 -36.710938 9.269531 -38.460938 11.9375 -39.765625 C 14.613281 -41.066406 17.660156 -41.71875 21.078125 -41.71875 C 25.898438 -41.71875 29.457031 -40.65625 31.75 -38.53125 C 34.039062 -36.414062 35.1875 -33.492188 35.1875 -29.765625 L 35.1875 -8.046875 C 35.1875 -5.773438 36.148438 -4.640625 38.078125 -4.640625 C 38.722656 -4.640625 39.34375 -4.75 39.9375 -4.96875 L 40.453125 -4.828125 L 41.15625 -0.625 C 40.707031 -0.332031 40.117188 -0.109375 39.390625 0.046875 C 38.660156 0.210938 37.910156 0.296875 37.140625 0.296875 C 34.890625 0.296875 33.1875 -0.195312 32.03125 -1.1875 C 30.882812 -2.175781 30.15625 -3.632812 29.84375 -5.5625 L 29.0625 -5.640625 C 27.894531 -3.484375 26.320312 -1.875 24.34375 -0.8125 C 22.363281 0.25 19.878906 0.78125 16.890625 0.78125 Z M 18.21875 -4.046875 C 20.5 -4.046875 22.472656 -4.570312 24.140625 -5.625 C 25.804688 -6.675781 27.082031 -8.15625 27.96875 -10.0625 C 28.863281 -11.96875 29.3125 -14.164062 29.3125 -16.65625 L 29.3125 -21.859375 L 28.609375 -22 C 27.691406 -21.363281 26.578125 -20.828125 25.265625 -20.390625 C 23.960938 -19.960938 22.132812 -19.570312 19.78125 -19.21875 C 17.40625 -18.894531 15.519531 -18.398438 14.125 -17.734375 C 12.726562 -17.066406 11.734375 -16.21875 11.140625 -15.1875 C 10.546875 -14.164062 10.25 -12.898438 10.25 -11.390625 C 10.25 -8.992188 10.953125 -7.171875 12.359375 -5.921875 C 13.765625 -4.671875 15.71875 -4.046875 18.21875 -4.046875 Z M 18.21875 -4.046875 "/></g></g></g><g fill="#000000" fill-opacity="1"><g transform="translate(626.210427, 104.958676)"><g><path d="M 21.234375 0.78125 C 17.941406 0.78125 15.039062 -0.00390625 12.53125 -1.578125 C 10.019531 -3.148438 8.050781 -5.519531 6.625 -8.6875 C 5.195312 -11.851562 4.484375 -15.773438 4.484375 -20.453125 C 4.484375 -25.128906 5.222656 -29.054688 6.703125 -32.234375 C 8.191406 -35.410156 10.242188 -37.785156 12.859375 -39.359375 C 15.472656 -40.929688 18.5 -41.71875 21.9375 -41.71875 C 24.65625 -41.71875 27.101562 -41.203125 29.28125 -40.171875 C 31.457031 -39.140625 33.328125 -37.453125 34.890625 -35.109375 L 35.65625 -35.25 L 35.65625 -57.375 L 41.71875 -57.375 L 41.71875 0 L 35.65625 0 L 35.65625 -5.96875 L 34.890625 -6.125 C 33.546875 -4.09375 31.726562 -2.429688 29.4375 -1.140625 C 27.15625 0.140625 24.421875 0.78125 21.234375 0.78125 Z M 23.125 -4.640625 C 26.925781 -4.640625 29.960938 -5.941406 32.234375 -8.546875 C 34.515625 -11.160156 35.65625 -15.128906 35.65625 -20.453125 C 35.65625 -25.796875 34.515625 -29.769531 32.234375 -32.375 C 29.960938 -34.988281 26.925781 -36.296875 23.125 -36.296875 C 19.1875 -36.296875 16.15625 -35.019531 14.03125 -32.46875 C 11.90625 -29.925781 10.84375 -25.921875 10.84375 -20.453125 C 10.84375 -9.910156 14.9375 -4.640625 23.125 -4.640625 Z M 23.125 -4.640625 "/></g></g></g><g fill="#000000" fill-opacity="1"><g transform="translate(673.86495, 104.958676)"><g><path d="M 23.484375 0.78125 C 19.628906 0.78125 16.269531 -0.0351562 13.40625 -1.671875 C 10.550781 -3.304688 8.347656 -5.710938 6.796875 -8.890625 C 5.253906 -12.066406 4.484375 -15.921875 4.484375 -20.453125 C 4.484375 -24.972656 5.253906 -28.828125 6.796875 -32.015625 C 8.347656 -35.210938 10.550781 -37.628906 13.40625 -39.265625 C 16.269531 -40.898438 19.628906 -41.71875 23.484375 -41.71875 C 27.347656 -41.71875 30.707031 -40.898438 33.5625 -39.265625 C 36.425781 -37.628906 38.628906 -35.210938 40.171875 -32.015625 C 41.710938 -28.828125 42.484375 -24.972656 42.484375 -20.453125 C 42.484375 -15.921875 41.710938 -12.066406 40.171875 -8.890625 C 38.628906 -5.710938 36.425781 -3.304688 33.5625 -1.671875 C 30.707031 -0.0351562 27.347656 0.78125 23.484375 0.78125 Z M 23.484375 -4.640625 C 27.566406 -4.640625 30.691406 -5.925781 32.859375 -8.5 C 35.023438 -11.070312 36.109375 -15.054688 36.109375 -20.453125 C 36.109375 -25.867188 35.023438 -29.863281 32.859375 -32.4375 C 30.691406 -35.007812 27.566406 -36.296875 23.484375 -36.296875 C 19.410156 -36.296875 16.285156 -35 14.109375 -32.40625 C 11.929688 -29.820312 10.84375 -25.835938 10.84375 -20.453125 C 10.84375 -15.054688 11.929688 -11.070312 14.109375 -8.5 C 16.285156 -5.925781 19.410156 -4.640625 23.484375 -4.640625 Z M 23.484375 -4.640625 "/></g></g></g><g fill="#000000" fill-opacity="1"><g transform="translate(719.626986, 104.958676)"><g><path d="M 7.125 0 L 7.125 -40.9375 L 12.875 -40.9375 L 12.875 -34.515625 L 13.65625 -34.328125 C 15.5625 -38.972656 19.148438 -41.296875 24.421875 -41.296875 C 27.210938 -41.296875 29.300781 -40.789062 30.6875 -39.78125 L 29.125 -34.65625 L 28.390625 -34.515625 C 26.859375 -35.273438 25.175781 -35.65625 23.34375 -35.65625 C 20.070312 -35.65625 17.554688 -34.429688 15.796875 -31.984375 C 14.046875 -29.535156 13.171875 -25.566406 13.171875 -20.078125 L 13.171875 0 Z M 7.125 0 "/></g></g></g></svg>